<svg width="120" height="60" viewBox="0 0 120 60" fill="none" xmlns="http://www.w3.org/2000/svg">
<rect width="68.4112" height="39.6226" fill="#E4F964"/>
<rect y="27.168" width="120" height="32.8301" fill="#E4F964"/>
<path d="M23.0494 21.3702C23.0494 22.3142 22.7774 23.1542 22.2334 23.8902C21.7054 24.6102 20.9614 25.1782 20.0014 25.5942C19.0414 25.9942 17.9454 26.1943 16.7134 26.1943C15.3694 26.1943 14.2094 25.9622 13.2334 25.4982C12.2574 25.0182 11.5134 24.3542 11.0014 23.5062C10.5054 22.6422 10.2574 21.6262 10.2574 20.4582H13.0174C13.0014 21.1942 13.1374 21.8262 13.4254 22.3542C13.7294 22.8822 14.1614 23.2902 14.7214 23.5782C15.2814 23.8502 15.9534 23.9862 16.7374 23.9862C17.4094 23.9862 18.0174 23.8742 18.5614 23.6502C19.1214 23.4102 19.5534 23.0822 19.8574 22.6662C20.1774 22.2502 20.3374 21.7782 20.3374 21.2502C20.3374 20.7062 20.2014 20.2502 19.9294 19.8822C19.6734 19.4982 19.3054 19.2102 18.8254 19.0182C18.3454 18.8262 17.7854 18.7302 17.1454 18.7302H15.2734V16.6422H17.0254C17.5214 16.6422 17.9774 16.5542 18.3934 16.3782C18.8094 16.2022 19.1454 15.9462 19.4014 15.6102C19.6574 15.2582 19.7854 14.8342 19.7854 14.3382C19.7854 13.8102 19.6574 13.3622 19.4014 12.9942C19.1454 12.6102 18.7934 12.3222 18.3454 12.1302C17.8974 11.9382 17.3934 11.8422 16.8334 11.8422C15.6654 11.8422 14.8254 12.1622 14.3134 12.8022C13.8174 13.4262 13.5534 14.1622 13.5214 15.0102H10.8094C10.8574 13.9062 11.1294 12.9542 11.6254 12.1542C12.1214 11.3382 12.8094 10.7142 13.6894 10.2822C14.5854 9.85025 15.6414 9.63425 16.8574 9.63425C17.9934 9.63425 18.9774 9.81025 19.8094 10.1622C20.6574 10.5142 21.3054 11.0182 21.7534 11.6742C22.2014 12.3142 22.4254 13.0742 22.4254 13.9542C22.4254 14.8502 22.1614 15.5942 21.6334 16.1862C21.1214 16.7782 20.4814 17.1542 19.7134 17.3142V17.6262C20.3054 17.7062 20.8494 17.8902 21.3454 18.1782C21.8574 18.4662 22.2654 18.8822 22.5694 19.4262C22.8894 19.9702 23.0494 20.6182 23.0494 21.3702ZM34.539 21.7062H27.747L26.163 25.9062H23.355L29.331 9.94625H32.715L39.051 25.9062H36.219L34.539 21.7062ZM33.843 19.5703L31.947 14.6502C31.643 13.8502 31.395 13.0902 31.203 12.3702H30.843L30.819 12.5382C30.675 13.1302 30.467 13.8342 30.195 14.6502L28.419 19.5703H33.843ZM11.8654 47.6022C12.4414 47.7142 12.9294 47.7702 13.3294 47.7702C13.8734 47.7702 14.3054 47.6822 14.6254 47.5062C14.9454 47.3142 15.2334 46.9302 15.4894 46.3542L15.7534 45.7782L10.1374 33.9462H13.0654L15.8254 40.0902C15.9694 40.3942 16.1054 40.7142 16.2334 41.0502C16.3614 41.3862 16.4894 41.7382 16.6174 42.1062C16.6654 42.2662 16.7134 42.4342 16.7614 42.6102C16.8254 42.7862 16.8814 42.9622 16.9294 43.1382H17.2894C17.3694 42.7382 17.4974 42.3142 17.6734 41.8662C17.8494 41.4022 18.0174 40.9782 18.1774 40.5942C18.2094 40.4982 18.2414 40.4102 18.2734 40.3302C18.3214 40.2502 18.3614 40.1622 18.3934 40.0662L20.9854 33.9462H23.8414L17.9854 47.0262C17.5054 48.0982 16.8974 48.8662 16.1614 49.3302C15.4254 49.7943 14.5454 50.0263 13.5214 50.0263C13.2494 50.0263 12.9614 50.0103 12.6574 49.9783C12.3534 49.9463 12.0894 49.9062 11.8654 49.8582V47.6022ZM35.487 36.1542H28.647V49.9062H25.983V33.9462H35.487V36.1542ZM46.1123 49.9062V36.1542H39.5123V45.0582C39.5123 45.9862 39.3763 46.8182 39.1043 47.5542C38.8483 48.2902 38.4003 48.8902 37.7603 49.3542C37.1203 49.8022 36.2563 50.0263 35.1683 50.0263C34.8643 50.0263 34.4883 49.9863 34.0403 49.9062V47.6262C34.3923 47.6902 34.7283 47.7222 35.0483 47.7222C35.4963 47.7222 35.8563 47.5942 36.1283 47.3382C36.4163 47.0822 36.6163 46.7542 36.7283 46.3542C36.8403 45.9382 36.8963 45.4742 36.8963 44.9622V33.9462H48.7763V49.9062H46.1123ZM58.8146 33.6582C60.3346 33.6582 61.6466 33.9942 62.7506 34.6662C63.8546 35.3382 64.6946 36.2982 65.2706 37.5462C65.8466 38.7782 66.1346 40.2422 66.1346 41.9382C66.1346 43.6502 65.8466 45.1302 65.2706 46.3783C64.6946 47.6102 63.8546 48.5622 62.7506 49.2342C61.6466 49.8902 60.3346 50.2183 58.8146 50.2183C57.2946 50.2183 55.9826 49.8902 54.8786 49.2342C53.7906 48.5622 52.9586 47.6102 52.3826 46.3783C51.8066 45.1302 51.5186 43.6502 51.5186 41.9382C51.5186 40.2422 51.8066 38.7782 52.3826 37.5462C52.9586 36.2982 53.7906 35.3382 54.8786 34.6662C55.9826 33.9942 57.2946 33.6582 58.8146 33.6582ZM58.9346 47.9622C59.8946 47.9622 60.7106 47.7222 61.3826 47.2422C62.0546 46.7462 62.5506 46.0502 62.8706 45.1542C63.2066 44.2582 63.3746 43.1862 63.3746 41.9382C63.3746 40.7062 63.2066 39.6422 62.8706 38.7462C62.5506 37.8502 62.0546 37.1542 61.3826 36.6582C60.7106 36.1622 59.8946 35.9142 58.9346 35.9142H58.7186C57.7586 35.9142 56.9426 36.1622 56.2706 36.6582C55.6146 37.1542 55.1186 37.8502 54.7826 38.7462C54.4466 39.6422 54.2786 40.7062 54.2786 41.9382C54.2786 43.1702 54.4466 44.2422 54.7826 45.1542C55.1186 46.0502 55.6146 46.7462 56.2706 47.2422C56.9426 47.7222 57.7586 47.9622 58.7186 47.9622H58.9346ZM72.7856 33.9462L75.9776 42.5862C76.0576 42.7942 76.1296 43.0022 76.1936 43.2102C76.2576 43.4022 76.3296 43.6022 76.4096 43.8102C76.5696 44.3382 76.7136 44.8582 76.8416 45.3702C76.9856 45.8822 77.1136 46.3782 77.2256 46.8582H77.4896C77.8256 45.3862 78.2496 43.9622 78.7616 42.5862L81.9536 33.9462H85.8656V49.9062H83.2496V40.7622C83.2496 40.2022 83.2656 39.5702 83.2976 38.8662C83.3456 38.1622 83.4016 37.4502 83.4656 36.7302L83.1296 36.6823C82.9696 37.3542 82.7856 38.0662 82.5776 38.8182C82.3696 39.5542 82.2096 40.1062 82.0976 40.4742L78.6656 49.9062H76.1216L72.6416 40.4742C72.4016 39.8182 72.2096 39.2342 72.0656 38.7222C71.9216 38.1942 71.7616 37.5142 71.5856 36.6823L71.2256 36.7302C71.3216 37.6102 71.3856 38.3702 71.4176 39.0102C71.4656 39.6502 71.4896 40.2342 71.4896 40.7622V49.9062H68.8736V33.9462H72.7856Z" fill="#181818"/>
</svg>
