<svg width="48" height="48" viewBox="0 0 48 48" fill="none" xmlns="http://www.w3.org/2000/svg">
<path d="M9.98764 23.7918L26.1495 17.1328C27.7449 16.4392 33.1553 14.2195 33.1553 14.2195C33.1553 14.2195 35.6524 13.2484 35.4443 15.6068C35.3749 16.5779 34.82 19.9768 34.2651 23.6531L32.531 34.5432C32.531 34.5432 32.3923 36.1386 31.2131 36.4161C30.0339 36.6935 28.0917 35.445 27.7449 35.1675C27.4674 34.9594 22.5426 31.838 20.7391 30.312C20.2535 29.8958 19.6986 29.0635 20.8084 28.0924C23.3056 25.8034 26.2882 22.9594 28.0917 21.156C28.9241 20.3236 29.7564 18.3814 26.2882 20.7398L16.5079 27.3294C16.5079 27.3294 15.398 28.023 13.3171 27.3987C11.2362 26.7745 8.80845 25.9421 8.80845 25.9421C8.80845 25.9421 7.14371 24.9016 9.98764 23.7918Z" fill="white"/>
</svg>
